<?xml version="1.0" encoding="utf-8"?>
<!-- Generator: Adobe Illustrator 26.0.0, SVG Export Plug-In . SVG Version: 6.00 Build 0)  -->
<svg version="1.1" id="Layer_1" xmlns="http://www.w3.org/2000/svg" xmlns:xlink="http://www.w3.org/1999/xlink" x="0px" y="0px"
	 viewBox="0 0 200 200" style="enable-background:new 0 0 200 200;" xml:space="preserve">
<style type="text/css">
	.st0{fill:none;}
	.st1{fill:none;}
	.st2{fill:none;stroke:#000000;stroke-miterlimit:10;}
	.st3{opacity:0.4;}
	.st4{fill:none;stroke:#17191B;stroke-width:0.25;stroke-miterlimit:10;}
</style>
<rect x="-3" y="205" class="st0" width="208" height="208"/>
<rect x="-3" y="-5" class="st1" width="208" height="208"/>
<g>
	<path class="st2" d="M76.86,244.2"/>
	<g>
		<g>
			<path class="st1" d="M82.19,249.53l-18.26,30.31l-0.91,1.51L63,281.37c-4.02,6.04-11.29,10.07-19.58,10.07
				c-12.66,0-22.92-9.38-22.92-20.96c0-11.57,10.26-20.96,22.92-20.96H82.19z"/>
			<path class="st1" d="M63.93,279.84c-0.27,0.52-0.58,1.02-0.91,1.51L63.93,279.84z"/>
		</g>
	</g>
	<g>
		<g>
			<path class="st1" d="M179.51,249.53c-22.48,35.39-44.96,70.77-67.44,106.16c-3.44,7.11-11.5,12.11-20.88,12.11
				c-8.51,0-15.92-4.1-19.8-10.15l-0.27-0.43l-25.26-41.11c3.97,5.72,11.17,9.55,19.39,9.55c8.85,0,16.51-4.44,20.24-10.9l0.04-0.06
				l35.15-56.62c0.94-1.37,2.91-3.84,6.37-5.82c3.54-2.03,6.92-2.55,8.68-2.72H179.51z"/>
			<path class="st1" d="M112.07,355.69c-0.53,0.83-1.06,1.67-1.59,2.5"/>
		</g>
	</g>
</g>
<g class="st3">
	<path class="st4" d="M76.86,38.2"/>
	<g>
		<g>
			<path class="st4" d="M82.19,43.53L63.93,73.84l-0.91,1.51L63,75.37c-4.02,6.04-11.29,10.07-19.58,10.07
				c-12.66,0-22.92-9.38-22.92-20.96c0-11.57,10.26-20.96,22.92-20.96H82.19z"/>
			<path class="st4" d="M63.93,73.84c-0.27,0.52-0.58,1.02-0.91,1.51L63.93,73.84z"/>
		</g>
	</g>
	<g>
		<g>
			<path class="st4" d="M179.51,43.53c-22.48,35.39-44.96,70.77-67.44,106.16c-3.44,7.11-11.5,12.11-20.88,12.11
				c-8.51,0-15.92-4.1-19.8-10.15l-0.27-0.43l-25.26-41.11c3.97,5.72,11.17,9.55,19.39,9.55c8.85,0,16.51-4.44,20.24-10.9l0.04-0.06
				l35.15-56.62c0.94-1.37,2.91-3.84,6.37-5.82c3.54-2.03,6.92-2.55,8.68-2.72H179.51z"/>
		</g>
	</g>
</g>
</svg>
